<svg width="196" height="184" viewBox="0 0 196 184" fill="none" xmlns="http://www.w3.org/2000/svg">
<ellipse cx="85.5" cy="81" rx="85.5" ry="81" fill="#C6D7EF"/>
<path d="M76.75 52.75H191.031V118.375H76.75V52.75Z" fill="#69D6F4"/>
<path d="M89.1719 62.125H74.2656C71.3092 62.125 68.7503 60.5078 67.5578 58.1406C64.0797 59.9219 61.8438 63.3672 61.8438 67.1875V69.1562H60.1792C57.8936 69.1562 55.8316 70.0234 54.3409 71.4531C52.8255 72.8594 51.9062 74.8047 51.9062 76.9609C51.9062 79.4219 53.1236 81.7422 55.2105 83.2188L61.8438 87.9062V99.625L57.7445 97.2109C52.8503 94.3281 48.9002 90.3438 46.1673 85.7031C43.4594 81.0859 41.9688 75.8125 41.9688 70.3516C41.9688 52.8672 56.9992 38.6875 75.5327 38.6875H94.1406C97.5691 38.6875 100.675 40 102.935 42.1094C105.171 44.2422 106.562 47.1719 106.562 50.4062C106.562 51.2031 106.488 52 106.314 52.75C105.544 56.2891 103.084 59.2656 99.7553 60.8594C98.0659 61.6562 96.153 62.125 94.1406 62.125H89.1719Z" fill="#656D78"/>
<path d="M96.625 176.969C96.625 178.258 97.743 179.312 99.1094 179.312H56.875V151.773C64.3033 165.344 79.3089 174.625 96.625 174.625V176.969Z" fill="#FCD770"/>
<path d="M61.8438 113.688C64.5766 113.688 67.0609 114.742 68.8745 116.43C69.4708 117.016 70.0173 117.672 70.4397 118.375C71.2844 119.758 71.7812 121.352 71.7812 123.062V132.438C71.7812 145.375 82.9112 155.875 96.625 155.875V174.625C79.3089 174.625 64.3033 165.344 56.875 151.773C53.695 145.984 51.9062 139.398 51.9062 132.438V123.062C51.9062 117.883 56.3533 113.688 61.8438 113.688Z" fill="#FCD770"/>
<path d="M96.6253 146.5V155.875C82.9115 155.875 71.7815 145.375 71.7815 132.438V123.062C71.7815 121.352 71.2846 119.758 70.4399 118.375H73.6696C77.0732 118.375 80.2035 116.57 81.719 113.688C83.9053 115.047 85.8679 116.641 87.5573 118.398C89.6193 120.414 91.3087 122.664 92.6751 125.078C95.234 129.578 96.6253 134.687 96.6253 139.961V146.5Z" fill="#FCD770"/>
<path d="M126.438 174.625V176.969C126.438 178.258 125.32 179.312 123.953 179.312H99.1094C97.743 179.312 96.625 178.258 96.625 176.969V174.625C96.625 169.445 101.072 165.25 106.562 165.25H114.016H116.5C121.99 165.25 126.438 169.445 126.438 174.625Z" fill="#AAB2BD"/>
<path d="M153.766 146.5L158.734 174.625H126.438C126.438 169.445 121.991 165.25 116.5 165.25H114.016C114.016 163 113.171 160.914 111.755 159.297L114.016 146.5H153.766Z" fill="#CCD1D9"/>
<path d="M87.582 118.375H191.031V137.125C191.031 142.305 186.584 146.5 181.094 146.5H153.766H114.016H96.6251V139.961C96.6251 134.687 95.2338 129.578 92.6749 125.078C91.3085 122.664 89.6192 120.414 87.5571 118.398L87.582 118.375Z" fill="#E6E9ED"/>
<path d="M133.891 137.125C136.635 137.125 138.859 135.026 138.859 132.438C138.859 129.849 136.635 127.75 133.891 127.75C131.146 127.75 128.922 129.849 128.922 132.438C128.922 135.026 131.146 137.125 133.891 137.125Z" fill="#FF826E"/>
<path d="M96.6006 99.6016C99.4079 97.2812 101.246 93.9531 101.544 90.25H121.469V99.625H96.6254L96.6006 99.6016Z" fill="#E6E9ED"/>
<path d="M156.275 72.9297C162.138 82.7969 171.156 90.25 171.156 90.25V106.656C171.156 107.945 170.038 109 168.672 109H133.891C132.524 109 131.406 107.945 131.406 106.656V73.8438C131.406 72.5547 132.524 71.5 133.891 71.5H146.312V80.875H156.25V72.9297H156.275Z" fill="#D3A06C"/>
<path d="M156.275 72.9297H156.25V80.875H146.312V71.5H155.43C155.703 71.9922 155.977 72.4609 156.275 72.9297Z" fill="#B27946"/>
<path d="M171.156 38.6875C182.137 38.6875 191.031 47.0781 191.031 57.4375C191.031 73.8438 171.156 90.25 171.156 90.25C171.156 90.25 162.138 82.7969 156.275 72.9297C155.977 72.4609 155.703 71.9922 155.43 71.5C152.995 67.0938 151.281 62.2656 151.281 57.4375C151.281 55.8203 151.505 54.25 151.902 52.75C154.113 44.6641 161.89 38.6875 171.156 38.6875Z" fill="#FF826E"/>
<path d="M171.156 66.8125C176.645 66.8125 181.094 62.6152 181.094 57.4375C181.094 52.2598 176.645 48.0625 171.156 48.0625C165.668 48.0625 161.219 52.2598 161.219 57.4375C161.219 62.6152 165.668 66.8125 171.156 66.8125Z" fill="#FFEAA7"/>
<path d="M99.7553 60.8594C101.345 63.5078 106.562 72.9063 106.562 80.875L101.594 83.2188V89.125C101.594 89.5 101.569 89.875 101.544 90.25C101.246 93.9531 99.4075 97.2812 96.6002 99.6016C94.2897 101.57 91.3084 102.859 88.0291 103.141L81.7188 103.68V113.688C80.2033 116.57 77.073 118.375 73.6694 118.375H70.4397C70.0173 117.672 69.4708 117.016 68.8745 116.43C67.0609 114.742 64.5766 113.688 61.8438 113.688V99.625V87.9063L55.2105 83.2188C53.1236 81.7422 51.9062 79.4219 51.9062 76.9609C51.9062 74.8047 52.8255 72.8594 54.3409 71.4531C55.8316 70.0234 57.8936 69.1563 60.1792 69.1563H61.8438V67.1875C61.8438 63.3672 64.0797 59.9219 67.5578 58.1406C68.7503 60.5078 71.3092 62.125 74.2656 62.125H89.1719H94.1406C96.153 62.125 98.0659 61.6562 99.7553 60.8594Z" fill="#F0D0B4"/>
<path d="M114.016 165.25H106.562C101.072 165.25 96.625 169.445 96.625 174.625V155.875H104.078C107.159 155.875 109.916 157.211 111.755 159.297C113.171 160.914 114.016 163 114.016 165.25Z" fill="#F0D0B4"/>
<path d="M91.6562 71.5C90.2849 71.5 89.1719 70.45 89.1719 69.1562H84.2031C84.2031 73.0328 87.5471 76.1875 91.6562 76.1875C95.7654 76.1875 99.1094 73.0328 99.1094 69.1562H94.1406C94.1406 70.45 93.0276 71.5 91.6562 71.5Z" fill="black"/>
<path d="M133.891 125.406C129.781 125.406 126.438 128.561 126.438 132.438C126.438 136.314 129.781 139.469 133.891 139.469C138 139.469 141.344 136.314 141.344 132.438C141.344 128.561 138 125.406 133.891 125.406ZM133.891 134.781C132.519 134.781 131.406 133.731 131.406 132.438C131.406 131.144 132.519 130.094 133.891 130.094C135.262 130.094 136.375 131.144 136.375 132.438C136.375 133.731 135.262 134.781 133.891 134.781Z" fill="#646464"/>
<path d="M183.578 57.4375C183.578 50.9758 178.006 45.7188 171.156 45.7188C164.307 45.7188 158.734 50.9758 158.734 57.4375C158.734 63.8992 164.307 69.1562 171.156 69.1562C178.006 69.1562 183.578 63.8992 183.578 57.4375ZM163.703 57.4375C163.703 53.5609 167.047 50.4062 171.156 50.4062C175.265 50.4062 178.609 53.5609 178.609 57.4375C178.609 61.3141 175.265 64.4688 171.156 64.4688C167.047 64.4688 163.703 61.3141 163.703 57.4375Z" fill="#646464"/>
<path d="M114.016 106.656H118.984V111.344H114.016V106.656Z" fill="#646464"/>
<path d="M104.078 106.656H109.047V111.344H104.078V106.656Z" fill="#646464"/>
<path d="M114.016 59.7812H138.859V64.4688H114.016V59.7812Z" fill="#646464"/>
<path d="M114.016 69.1562H123.953V73.8438H114.016V69.1562Z" fill="#646464"/>
<path d="M114.016 78.5312H123.953V83.2188H114.016V78.5312Z" fill="#646464"/>
</svg>
