<svg width="42" height="27" viewBox="0 0 42 27" fill="none" xmlns="http://www.w3.org/2000/svg">
<path d="M12.9941 26.4971C20.1113 26.4971 25.8809 20.7275 25.8809 13.6104C25.8809 6.49321 20.1113 0.723633 12.9941 0.723633C5.877 0.723633 0.107422 6.49321 0.107422 13.6104C0.107422 20.7275 5.877 26.4971 12.9941 26.4971Z" fill="#EE0005"/>
<path d="M29.0049 26.4971C36.122 26.4971 41.8916 20.7275 41.8916 13.6104C41.8916 6.49321 36.122 0.723633 29.0049 0.723633C21.8877 0.723633 16.1182 6.49321 16.1182 13.6104C16.1182 20.7275 21.8877 26.4971 29.0049 26.4971Z" fill="#F9A000"/>
<path d="M16.1182 13.6102C16.1182 17.702 18.0256 21.348 20.9994 23.7085C23.9731 21.3479 25.8807 17.702 25.8807 13.6102C25.8807 9.51838 23.9732 5.87239 20.9994 3.51184C18.0257 5.87258 16.1182 9.51848 16.1182 13.6102Z" fill="#FF6300"/>
</svg>
