<svg width="46" height="53" viewBox="0 0 46 53" fill="none" xmlns="http://www.w3.org/2000/svg">
<path d="M26.1153 51.3604L27.8563 48.7489H32.4265C33.2923 48.7489 34.1226 48.4049 34.7348 47.7927C35.347 47.1805 35.6909 46.3502 35.6909 45.4844V42.6553H22.6332V21.7629H18.022C17.3368 21.7629 16.669 21.9785 16.1132 22.3791C15.5574 22.7797 15.1417 23.3451 14.9251 23.9951L12.187 32.2091V41.7848L7.83447 49.6194V51.3604H26.1153Z" fill="#FFD4CF"/>
<path d="M26.1154 52.231H7.83463C7.60375 52.231 7.38233 52.1393 7.21908 51.9761C7.05583 51.8128 6.96411 51.5914 6.96411 51.3605V49.6195C6.96412 49.4715 7.00183 49.326 7.07367 49.1967L11.3167 41.5593V36.5618H13.0577V41.7849C13.0577 41.9328 13.02 42.0783 12.9482 42.2076L8.70514 49.8451V50.49H25.6496L27.1322 48.2661C27.2116 48.1469 27.3193 48.0491 27.4457 47.9815C27.572 47.9138 27.7131 47.8784 27.8565 47.8785H32.4267C32.7565 47.8799 33.0831 47.8125 33.3854 47.6805C33.6877 47.5485 33.9592 47.3549 34.1823 47.112L35.4587 48.2959C35.0712 48.7127 34.602 49.0453 34.0804 49.2731C33.5587 49.5008 32.9958 49.6187 32.4267 49.6195H28.3223L26.8397 51.8434C26.7602 51.9626 26.6525 52.0604 26.5262 52.128C26.3998 52.1956 26.2587 52.231 26.1154 52.231Z" fill="black"/>
<path d="M42.2198 0.870605H22.198C20.9961 0.870605 20.0217 1.84496 20.0217 3.04689V43.0905C20.0217 44.2925 20.9961 45.2668 22.198 45.2668H42.2198C43.4218 45.2668 44.3961 44.2925 44.3961 43.0905V3.04689C44.3961 1.84496 43.4218 0.870605 42.2198 0.870605Z" fill="#FA5D3F"/>
<path d="M23.5039 10.4463H40.9142V29.5976H23.5039V10.4463Z" fill="#FAC850"/>
<path d="M26.1152 21.7629H30.4678V26.1155H26.1152V21.7629Z" fill="#FFFDFA"/>
<path d="M20.8922 19.1513H19.1511V3.0468C19.152 2.23902 19.4733 1.46458 20.0445 0.893386C20.6157 0.322196 21.3901 0.000904351 22.1979 0H42.2197C43.0275 0.000904351 43.802 0.322196 44.3732 0.893386C44.9444 1.46458 45.2656 2.23902 45.2665 3.0468V5.22308H43.5255V3.0468C43.5251 2.70061 43.3874 2.3687 43.1426 2.12391C42.8978 1.87911 42.5659 1.74141 42.2197 1.74103H22.1979C21.8517 1.74141 21.5198 1.87911 21.275 2.12391C21.0302 2.3687 20.8925 2.70061 20.8922 3.0468V19.1513Z" fill="black"/>
<path d="M19.1511 29.5976H22.6332C23.7876 29.5976 24.8946 29.139 25.7109 28.3227C26.5272 27.5065 26.9858 26.3994 26.9858 25.245V21.7629H19.1511V29.5976Z" fill="#FFD4CF"/>
<path d="M43.5257 6.96411V43.0904C43.5253 43.4366 43.3876 43.7685 43.1428 44.0133C42.898 44.2581 42.5661 44.3958 42.2199 44.3962H22.1981C21.8519 44.3958 21.52 44.2581 21.2752 44.0133C21.0304 43.7685 20.8927 43.4366 20.8923 43.0904V30.468H22.6333C24.0181 30.4664 25.3457 29.9157 26.3249 28.9365C27.3041 27.9573 27.8549 26.6297 27.8564 25.2449V21.7629C27.8564 21.532 27.7647 21.3106 27.6015 21.1473C27.4382 20.9841 27.2168 20.8923 26.9859 20.8923H18.0221C17.1541 20.8916 16.3078 21.1643 15.6036 21.6719C14.8994 22.1794 14.3731 22.896 14.0993 23.7197L11.3613 31.9337C11.3317 32.0225 11.3167 32.1155 11.3167 32.209V34.8206H13.0577V32.3503L15.751 24.2703C15.9095 23.7934 16.2142 23.3785 16.6219 23.0847C17.0296 22.7908 17.5196 22.6329 18.0221 22.6334H26.1154V25.2449C26.1143 26.1681 25.7471 27.0532 25.0944 27.7059C24.4416 28.3587 23.5565 28.7259 22.6333 28.727H19.1513V43.0904C19.1522 43.8982 19.4735 44.6727 20.0447 45.2439C20.6159 45.8151 21.3903 46.1363 22.1981 46.1372H42.2199C43.0277 46.1363 43.8021 45.8151 44.3733 45.2439C44.9445 44.6727 45.2658 43.8982 45.2667 43.0904V6.96411H43.5257Z" fill="black"/>
<path d="M41.7848 13.0577H40.0438V11.3167H38.3027V9.57568H40.9143C41.1452 9.57568 41.3666 9.6674 41.5298 9.83065C41.6931 9.9939 41.7848 10.2153 41.7848 10.4462V13.0577Z" fill="black"/>
<path d="M40.9143 30.4679H38.3027V28.7269H40.0438V26.9858H41.7848V29.5974C41.7848 29.8283 41.6931 30.0497 41.5298 30.2129C41.3666 30.3762 41.1452 30.4679 40.9143 30.4679Z" fill="black"/>
<path d="M24.3743 13.0577H22.6333V10.4462C22.6333 10.2153 22.725 9.9939 22.8883 9.83065C23.0515 9.6674 23.2729 9.57568 23.5038 9.57568H26.1154V11.3167H24.3743V13.0577Z" fill="black"/>
<path d="M33.95 13.9282H38.3025V18.2808H33.95V13.9282Z" fill="#FFFDFA"/>
<path d="M38.3027 19.1512H33.9501C33.7192 19.1512 33.4978 19.0595 33.3346 18.8962C33.1713 18.733 33.0796 18.5116 33.0796 18.2807V13.9281C33.0796 13.6973 33.1713 13.4758 33.3346 13.3126C33.4978 13.1493 33.7192 13.0576 33.9501 13.0576H38.3027C38.5335 13.0576 38.755 13.1493 38.9182 13.3126C39.0815 13.4758 39.1732 13.6973 39.1732 13.9281V18.2807C39.1732 18.5116 39.0815 18.733 38.9182 18.8962C38.755 19.0595 38.5335 19.1512 38.3027 19.1512ZM34.8206 17.4102H37.4322V14.7986H34.8206V17.4102Z" fill="black"/>
<path d="M26.1152 13.9282H30.4678V18.2808H26.1152V13.9282Z" fill="#FFFDFA"/>
<path d="M30.468 19.1512H26.1154C25.8845 19.1512 25.6631 19.0595 25.4998 18.8962C25.3366 18.733 25.2449 18.5116 25.2449 18.2807V13.9281C25.2449 13.6973 25.3366 13.4758 25.4998 13.3126C25.6631 13.1493 25.8845 13.0576 26.1154 13.0576H30.468C30.6988 13.0576 30.9203 13.1493 31.0835 13.3126C31.2468 13.4758 31.3385 13.6973 31.3385 13.9281V18.2807C31.3385 18.5116 31.2468 18.733 31.0835 18.8962C30.9203 19.0595 30.6988 19.1512 30.468 19.1512ZM26.9859 17.4102H29.5974V14.7986H26.9859V17.4102Z" fill="black"/>
<path d="M33.95 21.7629H38.3025V26.1155H33.95V21.7629Z" fill="#FFFDFA"/>
<path d="M38.3027 26.9859H33.9501C33.7192 26.9859 33.4978 26.8942 33.3346 26.731C33.1713 26.5677 33.0796 26.3463 33.0796 26.1154V21.7628C33.0796 21.532 33.1713 21.3106 33.3346 21.1473C33.4978 20.984 33.7192 20.8923 33.9501 20.8923H38.3027C38.5335 20.8923 38.755 20.984 38.9182 21.1473C39.0815 21.3106 39.1732 21.532 39.1732 21.7628V26.1154C39.1732 26.3463 39.0815 26.5677 38.9182 26.731C38.755 26.8942 38.5335 26.9859 38.3027 26.9859ZM34.8206 25.2449H37.4322V22.6334H34.8206V25.2449Z" fill="black"/>
<path d="M30.4679 26.9859H29.5974V20.8923H30.4679C30.6988 20.8923 30.9202 20.984 31.0835 21.1473C31.2467 21.3106 31.3384 21.532 31.3384 21.7628V26.1154C31.3384 26.3463 31.2467 26.5677 31.0835 26.731C30.9202 26.8942 30.6988 26.9859 30.4679 26.9859Z" fill="black"/>
<path d="M27.8564 3.48218H36.5616V5.22321H27.8564V3.48218Z" fill="black"/>
<path d="M24.3743 3.48218H26.1153V5.22321H24.3743V3.48218Z" fill="black"/>
<path d="M38.3027 3.48218H40.0438V5.22321H38.3027V3.48218Z" fill="black"/>
<path d="M32.2089 41.7848C35.0936 41.7848 37.432 39.4463 37.432 36.5617C37.432 33.6771 35.0936 31.3386 32.2089 31.3386C29.3243 31.3386 26.9858 33.6771 26.9858 36.5617C26.9858 39.4463 29.3243 41.7848 32.2089 41.7848Z" fill="#FAC850"/>
<path d="M32.2088 42.6552C31.0036 42.6552 29.8255 42.2978 28.8234 41.6283C27.8213 40.9587 27.0403 40.007 26.5791 38.8935C26.1179 37.7801 25.9972 36.5549 26.2323 35.3728C26.4674 34.1908 27.0478 33.105 27.9 32.2528C28.7522 31.4006 29.838 30.8202 31.02 30.5851C32.2021 30.35 33.4273 30.4707 34.5408 30.9319C35.6542 31.3931 36.6059 32.1741 37.2755 33.1762C37.945 34.1783 38.3024 35.3564 38.3024 36.5616C38.3006 38.1772 37.658 39.7261 36.5156 40.8684C35.3733 42.0108 33.8244 42.6534 32.2088 42.6552ZM32.2088 32.209C31.348 32.209 30.5065 32.4643 29.7907 32.9426C29.0749 33.4209 28.517 34.1006 28.1876 34.896C27.8582 35.6913 27.772 36.5664 27.9399 37.4108C28.1078 38.2551 28.5224 39.0306 29.1311 39.6393C29.7398 40.2481 30.5154 40.6626 31.3597 40.8306C32.204 40.9985 33.0792 40.9123 33.8745 40.5829C34.6698 40.2534 35.3496 39.6956 35.8279 38.9798C36.3061 38.264 36.5614 37.4225 36.5614 36.5616C36.5601 35.4076 36.1011 34.3013 35.2851 33.4853C34.4691 32.6694 33.3628 32.2104 32.2088 32.209Z" fill="black"/>
<path d="M31.3383 39.1732C31.224 39.1733 31.1107 39.1509 31.0051 39.1071C30.8994 39.0634 30.8035 38.9992 30.7227 38.9182L28.9817 37.1772L30.2129 35.9461L31.3383 37.0716L34.2048 34.2051L35.4359 35.4361L31.9539 38.9182C31.8731 38.9992 31.7772 39.0634 31.6715 39.1071C31.5659 39.1509 31.4526 39.1733 31.3383 39.1732Z" fill="black"/>
<path d="M6.80364 21.2357C4.03404 19.2183 2.14389 16.2152 1.52274 12.8454L0.870605 8.70498L8.69443 5.21631L16.5182 8.70498L15.8593 12.8796C15.2331 16.2782 13.3159 19.3025 10.5095 21.3191L8.70139 22.6335L6.80364 21.2357Z" fill="#79D8EB"/>
<path d="M8.70126 23.504C8.51548 23.5041 8.33456 23.4446 8.18504 23.3344L6.28731 21.9366C4.4968 20.6203 3.03234 18.9105 2.00675 16.939L3.55394 16.1407C4.45642 17.8743 5.74476 19.3776 7.31973 20.5348L8.70467 21.5548L9.99748 20.6149C12.6196 18.7318 14.4123 15.9079 15.0008 12.7337L15.5541 9.22833L8.69421 6.16939L1.83412 9.22835L2.38086 12.6996C2.49353 13.3157 2.65283 13.9223 2.85741 14.5142L1.21202 15.0833C0.977309 14.4042 0.794819 13.708 0.666144 13.0011C0.664969 12.9943 0.663805 12.9876 0.662738 12.9808L0.0106038 8.84037C-0.0191808 8.65129 0.0141895 8.45765 0.10555 8.28944C0.19691 8.12123 0.341166 7.98783 0.515992 7.90987L8.33974 4.42118C8.4513 4.37142 8.57208 4.3457 8.69423 4.3457C8.81638 4.3457 8.93717 4.37142 9.04873 4.42118L16.8725 7.90987C17.0473 7.98784 17.1916 8.12129 17.283 8.28955C17.3744 8.45782 17.4077 8.65151 17.3779 8.84064L16.719 13.0153C16.7179 13.022 16.7168 13.0288 16.7156 13.0355C16.0496 16.6544 14.009 19.8752 11.0212 22.0231L9.21313 23.3376C9.0644 23.4458 8.88519 23.504 8.70126 23.504Z" fill="black"/>
<path d="M7.81381 16.5395C7.69946 16.5396 7.58621 16.5172 7.48057 16.4734C7.37492 16.4296 7.27897 16.3654 7.19821 16.2845L4.58667 13.6729L5.81785 12.4419L7.81381 14.4379L12.4213 9.83032L13.6525 11.0614L8.42939 16.2845C8.34864 16.3654 8.25268 16.4296 8.14704 16.4734C8.0414 16.5172 7.92815 16.5396 7.81381 16.5395Z" fill="black"/>
</svg>
