<svg width="23" height="28" viewBox="0 0 23 28" fill="none" xmlns="http://www.w3.org/2000/svg">
<path d="M18.9841 2.69213C17.8286 1.3715 15.6825 0.711182 12.7111 0.711182H4.45714C3.96191 0.711182 3.46667 1.20642 3.30159 1.70166L0 23.327C0 23.8223 0.330159 24.1524 0.660318 24.1524H5.77778L7.09841 16.0636V16.3937C7.26349 15.8985 7.75873 15.4032 8.25397 15.4032H10.7302C15.5175 15.4032 19.1492 13.4223 20.3048 7.97467C20.3048 7.80959 20.3048 7.64451 20.3048 7.47943C20.1397 7.47943 20.1397 7.47943 20.3048 7.47943C20.4698 5.3334 20.1397 4.01277 18.9841 2.69213Z" fill="#263B80"/>
<path d="M20.1399 7.47937C20.1399 7.64445 20.1399 7.80953 20.1399 7.97461C18.9843 13.5873 15.3526 15.4032 10.5653 15.4032H8.08906C7.59383 15.4032 7.09859 15.8984 6.93351 16.3937L5.28271 26.4635C5.28271 26.7937 5.44779 27.1238 5.94303 27.1238H10.2351C10.7303 27.1238 11.2256 26.7937 11.2256 26.2984V26.1333L12.051 21.0159V20.6857C12.051 20.1905 12.5462 19.8603 13.0414 19.8603H13.7018C17.8287 19.8603 21.1303 18.2095 21.9557 13.2571C22.2859 11.2762 22.1208 9.46032 21.1303 8.30477C20.9653 7.97461 20.6351 7.64445 20.1399 7.47937Z" fill="#139AD6"/>
<path d="M18.9843 6.98413C18.8193 6.98413 18.6542 6.81905 18.4891 6.81905C18.324 6.81905 18.1589 6.81905 17.9939 6.65397C17.3336 6.48889 16.6732 6.48889 15.8478 6.48889H9.40974C9.24466 6.48889 9.07958 6.48889 8.91451 6.65397C8.58435 6.81905 8.41927 7.14921 8.41927 7.47936L7.09863 16.0635V16.3937C7.26371 15.8984 7.75895 15.4032 8.25419 15.4032H10.7304C15.5177 15.4032 19.1494 13.4222 20.305 7.9746C20.305 7.80953 20.305 7.64444 20.4701 7.47936C20.1399 7.31429 19.9748 7.14921 19.6447 7.14921C19.1494 6.98413 19.1494 6.98413 18.9843 6.98413Z" fill="#232C65"/>
</svg>
