<svg width="45" height="15" viewBox="0 0 45 15" fill="none" xmlns="http://www.w3.org/2000/svg">
<path d="M16.5 13.9643L18.7857 1.10718H22.3571L20.1429 13.9643H16.5Z" fill="#3C58BF"/>
<path d="M16.5 13.9643L19.4286 1.10718H22.3571L20.1429 13.9643H16.5Z" fill="#293688"/>
<path d="M33.0716 1.25002C32.3574 0.964303 31.2145 0.678589 29.7859 0.678589C26.2145 0.678589 23.6431 2.4643 23.6431 5.03573C23.6431 6.9643 25.4288 7.9643 26.8574 8.60716C28.2859 9.25002 28.7145 9.67859 28.7145 10.25C28.7145 11.1072 27.5716 11.5357 26.5716 11.5357C25.1431 11.5357 24.3574 11.3214 23.1431 10.8214L22.6431 10.6072L22.1431 13.5357C23.0002 13.8929 24.5716 14.25 26.2145 14.25C30.0002 14.25 32.5002 12.4643 32.5002 9.75002C32.5002 8.25002 31.5716 7.10716 29.4288 6.17859C28.1431 5.53573 27.3574 5.17859 27.3574 4.53573C27.3574 3.9643 28.0002 3.39287 29.4288 3.39287C30.6431 3.39287 31.5002 3.60716 32.1431 3.89287L32.5002 4.03573L33.0716 1.25002Z" fill="#3C58BF"/>
<path d="M33.0716 1.25002C32.3574 0.964303 31.2145 0.678589 29.7859 0.678589C26.2145 0.678589 24.2859 2.4643 24.2859 5.03573C24.2859 6.9643 25.4288 7.9643 26.8574 8.60716C28.2859 9.25002 28.7145 9.67859 28.7145 10.25C28.7145 11.1072 27.5716 11.5357 26.5716 11.5357C25.1431 11.5357 24.3574 11.3214 23.1431 10.8214L22.6431 10.6072L22.1431 13.5357C23.0002 13.8929 24.5716 14.25 26.2145 14.25C30.0002 14.25 32.5002 12.4643 32.5002 9.75002C32.5002 8.25002 31.5716 7.10716 29.4288 6.17859C28.1431 5.53573 27.3574 5.17859 27.3574 4.53573C27.3574 3.9643 28.0002 3.39287 29.4288 3.39287C30.6431 3.39287 31.5002 3.60716 32.1431 3.89287L32.5002 4.03573L33.0716 1.25002Z" fill="#293688"/>
<path d="M39.2143 1.10718C38.3571 1.10718 37.7143 1.17861 37.3571 2.03575L32 13.9643H35.8571L36.5714 11.8215H41.1429L41.5714 13.9643H45L42 1.10718H39.2143ZM37.5714 9.67861C37.7857 9.03575 39 5.89289 39 5.89289C39 5.89289 39.2857 5.10718 39.5 4.60718L39.7143 5.82146C39.7143 5.82146 40.4286 9.03575 40.5714 9.75004H37.5714V9.67861Z" fill="#3C58BF"/>
<path d="M40.0714 1.10718C39.2143 1.10718 38.5714 1.17861 38.2143 2.03575L32 13.9643H35.8571L36.5714 11.8215H41.1429L41.5714 13.9643H45L42 1.10718H40.0714ZM37.5714 9.67861C37.8571 8.96432 39 5.89289 39 5.89289C39 5.89289 39.2857 5.10718 39.5 4.60718L39.7143 5.82146C39.7143 5.82146 40.4286 9.03575 40.5714 9.75004H37.5714V9.67861Z" fill="#293688"/>
<path d="M9.92843 10.1072L9.57129 8.25001C8.92843 6.10716 6.857 3.75002 4.57129 2.60716L7.78557 14.0357H11.6427L17.4284 1.17859H13.5713L9.92843 10.1072Z" fill="#3C58BF"/>
<path d="M9.92843 10.1072L9.57129 8.25001C8.92843 6.10716 6.857 3.75002 4.57129 2.60716L7.78557 14.0357H11.6427L17.4284 1.17859H14.2856L9.92843 10.1072Z" fill="#293688"/>
<path d="M0 1.10718L0.642857 1.25004C5.21429 2.32146 8.35714 5.03575 9.57143 8.25003L8.28572 2.17861C8.07143 1.32146 7.42857 1.10718 6.64286 1.10718H0Z" fill="#FFBC00"/>
<path d="M0 1.10718C4.57143 2.17861 8.35714 4.96432 9.57143 8.17861L8.35714 3.10718C8.14286 2.25004 7.42857 1.75004 6.64286 1.75004L0 1.10718Z" fill="#F7981D"/>
<path d="M0 1.10718C4.57143 2.17861 8.35714 4.96432 9.57143 8.17861L8.71429 5.39289C8.5 4.53575 8.21429 3.67861 7.21429 3.32146L0 1.10718Z" fill="#ED7C00"/>
<path d="M13.4997 9.6785L11.0711 7.24993L9.92829 9.96422L9.64258 8.1785C8.99972 6.03565 6.92829 3.6785 4.64258 2.53564L7.85686 13.9642H11.714L13.4997 9.6785Z" fill="#051244"/>
<path d="M20.1424 13.9641L17.0709 10.8213L16.4995 13.9641H20.1424Z" fill="#051244"/>
<path d="M28.3569 9.53564C28.6426 9.82136 28.7854 10.0356 28.714 10.3214C28.714 11.1785 27.5712 11.6071 26.5712 11.6071C25.1426 11.6071 24.3569 11.3928 23.1426 10.8928L22.6426 10.6785L22.1426 13.6071C22.9997 13.9642 24.5712 14.3214 26.214 14.3214C28.4997 14.3214 30.3569 13.6785 31.4283 12.5356L28.3569 9.53564Z" fill="#051244"/>
<path d="M32.5 13.9642H35.8571L36.5714 11.8213H41.1429L41.5714 13.9642H45L43.7857 8.74991L39.5 4.60706L39.7143 5.74991C39.7143 5.74991 40.4286 8.9642 40.5714 9.67848H37.5714C37.8571 8.9642 39 5.89277 39 5.89277C39 5.89277 39.2857 5.10706 39.5 4.60706" fill="#051244"/>
</svg>
